<svg width="24" height="24" viewBox="0 0 24 24" fill="none" xmlns="http://www.w3.org/2000/svg">
<path d="M8.16945 13.3736L8.45415 13.7884L8.49741 13.7583C8.8895 14.1314 9.39314 14.3651 9.92231 14.4753L9.95042 14.4812L9.97901 14.4838L13.5614 14.8094L13.4718 15.4663L3.22624 14.5826L2.22624 12.2937L2.21546 12.269L2.2021 12.2456C1.99065 11.8758 1.5317 11.6746 1.09867 11.8601L1.07226 11.8714L1.04732 11.8856C0.983564 11.9221 0.924818 11.9659 0.8722 12.0157L0.799698 10.798L0.799735 10.798L0.799301 10.792C0.798402 10.7794 0.798965 10.7712 0.799512 10.7667C0.799561 10.7663 0.799611 10.766 0.799662 10.7656L0.820611 10.7586L0.833412 10.7501C0.835998 10.7523 0.838957 10.7551 0.842273 10.7584L1.53858 11.4547C1.70209 11.6182 1.94263 11.7184 2.16663 11.7251L7.30958 12.1208L8.16945 13.3736ZM2.5865 16.2263L13.2332 17.1277L12.4437 22.6103L12.1461 22.8296C11.9191 22.985 11.662 23.0526 11.4053 23.0366L10.2922 22.9378L10.2922 22.9377L10.2854 22.9372C9.41557 22.872 8.57869 22.4791 7.93578 21.8589L1.17315 15.2206L1.16105 15.2087L1.14817 15.1977C1.07388 15.1341 1.04933 15.0693 1.04933 15.0055V14.9906L1.04845 14.9758L0.972577 13.7015L1.85671 15.7278L1.86179 15.7394L1.86746 15.7508C1.93329 15.8829 2.03535 15.9937 2.14781 16.0731C2.25466 16.1485 2.40596 16.2198 2.5865 16.2263Z" stroke="white"/>
<path d="M19.2792 16.8395L17.9592 17.633L18.275 16.5113L18.831 16.2642C18.9309 16.4883 19.0844 16.6871 19.2792 16.8395Z" stroke="white"/>
<path d="M20.2461 15.6393L20.2448 15.6496L20.2439 15.66C20.2439 15.6602 20.2439 15.6604 20.2439 15.6606C20.2433 15.6612 20.2424 15.6621 20.2409 15.6633C20.2354 15.6675 20.2251 15.6728 20.2106 15.6751C20.1975 15.6695 20.1887 15.6622 20.1835 15.6562C20.1763 15.6479 20.1728 15.6393 20.1728 15.6271L20.1728 15.6263C20.1728 15.6213 20.1729 15.5993 20.1713 15.5755C20.1703 15.5605 20.1681 15.5344 20.1616 15.5018L21.1575 7.69678H21.2446L20.2461 15.6393Z" stroke="white"/>
<path d="M23.4985 6.19484C23.4989 6.19223 23.4997 6.18654 23.4997 6.17711C23.4997 6.16547 23.4977 6.15974 23.497 6.15824C23.497 6.15803 23.4969 6.15785 23.4968 6.1577C23.4967 6.15763 23.4965 6.15755 23.4963 6.15747C23.4948 6.15687 23.4891 6.15479 23.4774 6.15479H21.1936L21.1809 6.19925H23.4774C23.4869 6.19925 23.4925 6.19847 23.4952 6.19799L23.4985 6.19484ZM23.4985 6.19484C23.4985 6.19489 23.4985 6.19495 23.4984 6.195M23.4985 6.19484L23.4955 6.19793C23.496 6.19748 23.4966 6.19691 23.4973 6.1962L23.498 6.19693C23.4981 6.19662 23.4983 6.196 23.4984 6.195M23.4984 6.195C23.4998 6.19351 23.5001 6.19298 23.4998 6.19349C23.4993 6.19419 23.4987 6.19535 23.4982 6.19653C23.4981 6.1967 23.4981 6.19683 23.498 6.19694L23.8505 6.55006L23.497 6.1965C23.4976 6.19592 23.4981 6.19542 23.4984 6.195ZM20.5181 6.69925H21.0381L20.6609 6.19925L20.5181 6.69925Z" stroke="white"/>
<path d="M15.0302 20.5424L15.0232 20.5474L15.0163 20.5527L14.5967 20.8749L17.4562 0.858398H20.654L15.1876 20.2916L15.1857 20.2986L15.1839 20.3056C15.1597 20.4021 15.0975 20.4944 15.0302 20.5424Z" stroke="white"/>
<path d="M23.2844 0.883301L22.8119 4.68285H21.598L22.649 0.883301H23.2844Z" stroke="white"/>
</svg>
