<svg width="24" height="24" viewBox="0 0 24 24" fill="none" xmlns="http://www.w3.org/2000/svg">
<path fill-rule="evenodd" clip-rule="evenodd" d="M11.3593 10.9478L14.5549 7.87576C14.5442 7.84353 14.528 7.81113 14.5118 7.7789C14.4956 7.7465 14.4796 7.71427 14.4687 7.68188L13.7361 5.80741C13.3699 4.85951 13.65 3.60979 14.361 2.89874L15.6322 1.6492C16.494 0.787244 17.873 0.787244 18.7131 1.62754L22.376 5.26874C22.7854 5.65666 23.0007 6.19517 23.0007 6.77696C23.0007 7.35876 22.7637 7.9189 22.3543 8.32832L21.0831 9.57786C20.3722 10.2889 19.1225 10.5691 18.1746 10.2458L16.494 9.64251C16.3431 9.57788 16.1923 9.51326 16.0414 9.42714L12.8862 12.4586L13.1759 12.7452C13.2622 12.8313 13.2622 12.9607 13.1759 13.0468L12.1202 14.1888L14.361 16.4295C14.598 16.6666 14.7487 17.0112 14.7487 17.356C14.7487 17.7222 14.6195 18.067 14.361 18.3255C14.3526 18.3339 14.3368 18.3502 14.3141 18.3738C13.9272 18.7753 11.5159 21.2783 8.93136 22.3976C7.94032 22.85 6.88447 22.9794 5.93661 22.9794C4.53358 22.9794 3.40496 22.6536 3.05522 22.5526C3.01276 22.5405 2.98189 22.5315 2.96331 22.5269C2.48929 22.4191 2.16613 22.2684 1.95062 22.0313C1.7136 21.8158 1.54121 21.4927 1.45508 21.0187C1.36897 20.7602 0.399401 17.7869 1.58433 15.0719C2.70392 12.4867 5.26613 10.055 5.6363 9.70403C5.65795 9.68357 5.6721 9.6701 5.67807 9.66413C6.19509 9.14711 7.05687 9.14711 7.57406 9.66413L9.7502 11.8403L10.849 10.7415C10.9351 10.6553 11.0644 10.6553 11.1507 10.7415L11.3593 10.9478ZM12.5943 12.1417L11.6894 11.2585L14.9427 8.09131C15.029 8.02668 15.029 7.91892 14.9858 7.83264C14.9212 7.72504 14.8781 7.63876 14.8566 7.55265L14.1241 5.65666C13.8224 4.85931 14.0594 3.80367 14.6627 3.20036L15.9339 1.95082C16.6233 1.26124 17.7436 1.26124 18.4115 1.92916L22.0744 5.57036C22.3975 5.89365 22.5699 6.32454 22.5699 6.77695C22.5699 7.25097 22.3975 7.68185 22.0527 8.02666L20.7815 9.2762C20.1784 9.87948 19.1226 10.1165 18.3254 9.83635L16.6448 9.23325C16.4724 9.16845 16.3002 9.08235 16.1278 8.97458C16.0631 8.90995 15.9339 8.93161 15.8693 8.99623L12.5943 12.1417ZM5.97974 9.98743C6.17361 9.79338 6.41063 9.70727 6.64766 9.70727C6.88467 9.70727 7.10002 9.79338 7.27241 9.96577L9.59928 12.2928C9.68556 12.3789 9.81481 12.3789 9.90093 12.2928L10.9997 11.1938L12.7235 12.8959L11.6676 14.0379C11.5815 14.1241 11.5815 14.2534 11.6676 14.3395L14.0593 16.7312C14.2317 16.9034 14.3178 17.1189 14.3178 17.3559C14.3178 17.6144 14.21 17.8514 14.0376 18.0238C14.0361 18.0254 14.0315 18.0303 14.0236 18.0385C13.8117 18.2615 11.3146 20.8875 8.73736 22.0098C6.25329 23.0889 3.42272 22.2247 3.101 22.1263C3.08242 22.1207 3.07218 22.1174 3.07099 22.1174H3.04934C2.66158 22.0313 2.42459 21.9236 2.25216 21.7297L2.23068 21.7082C2.05828 21.5358 1.95052 21.2988 1.86441 20.911V20.8894C1.86441 20.8861 1.85844 20.8662 1.84821 20.8309C1.721 20.3974 0.91615 17.6552 1.97217 15.2443C3.13559 12.5943 5.93648 10.0086 5.97965 9.98726L5.97974 9.98743Z" stroke="white"/>
</svg>
