<svg width="24" height="24" viewBox="0 0 24 24" fill="none" xmlns="http://www.w3.org/2000/svg">
<path d="M4.5 1.50002H5H8.89121H8.892V2.00002L4.5 1.50002ZM4.5 1.50002V2.00002M4.5 1.50002V2.00002M4.5 2.00002V8.00002V8.50002H5H13.2H14.1028M4.5 2.00002L14.1028 8.50002M14.1028 8.50002L13.6238 7.73476M14.1028 8.50002L13.6238 7.73476M13.6238 7.73476L10.1642 2.20691C10.1639 2.20652 10.1637 2.20613 10.1634 2.20573L13.6238 7.73476ZM9.81645 14.8905L9.52684 15.1801L9.75375 15.521C10.0725 15.9999 10.2953 16.536 10.41 17.0997L10.4915 17.5H10.9H11.5V18.5H10.9H10.4914L10.41 18.9004C10.2954 19.4645 10.0725 20.0009 9.75372 20.48L9.52687 20.821L9.81645 21.1106L10.2429 21.537L9.536 22.2439L9.10955 21.8175L8.8201 21.528L8.4792 21.7546C8.00024 22.073 7.46413 22.2956 6.90051 22.41L6.5 22.4913V22.9V23.5H5.5V22.9V22.4915L5.09971 22.4101C4.53602 22.2953 3.9999 22.0725 3.52101 21.7538L3.18005 21.5269L2.89045 21.8165L2.46387 22.243L1.75623 21.5359L2.18255 21.1096L2.472 20.8201L2.24539 20.4792C1.92701 20.0003 1.70444 19.4641 1.59 18.9005L1.50868 18.5H1.1H0.5V17.5H1.1H1.50849L1.58996 17.0997C1.70467 16.536 1.92755 15.9999 2.24625 15.521L2.47316 15.1801L2.18355 14.8905L1.75698 14.4639L2.46413 13.7562L2.89045 14.1826L3.1799 14.472L3.5208 14.2454C3.99976 13.927 4.53587 13.7045 5.09949 13.59L5.5 13.5087V13.1V12.5H6.5V13.1V13.5085L6.90029 13.59C7.46398 13.7047 8.00009 13.9276 8.47899 14.2463L8.81995 14.4732L9.10955 14.1836L9.536 13.7571L10.2429 14.464L9.81645 14.8905ZM19.5 8.00002V8.50002H20H21C21.663 8.50002 22.2989 8.76341 22.7678 9.23225C23.2366 9.70109 23.5 10.337 23.5 11V13.1664L21.326 16.0661L21.0727 16.4039L21.3633 16.7101C21.9017 17.2777 22.263 17.99 22.4027 18.7597C22.5425 19.5295 22.4548 20.3233 22.1503 21.0439C21.8457 21.7646 21.3376 22.3807 20.6882 22.817C20.0438 23.2499 19.288 23.487 18.512 23.4998C16.9019 23.3973 15.853 22.7393 15.2431 21.8846C14.6221 21.0144 14.4203 19.8898 14.6112 18.8137C14.8021 17.7376 15.3785 16.7502 16.2611 16.1452C17.1314 15.5488 18.3482 15.2903 19.9025 15.7523L20.2361 15.8514L20.445 15.5731L22.4 12.9671L22.5 12.8337V12.667V11C22.5 10.6022 22.342 10.2207 22.0607 9.93936C21.7794 9.65805 21.3978 9.50002 21 9.50002H3C2.60217 9.50002 2.22064 9.65805 1.93934 9.93936C1.70868 10.17 1.56091 10.4681 1.51517 10.7872C1.15859 11.0095 0.819316 11.2576 0.5 11.5294V11C0.5 10.337 0.763392 9.70109 1.23223 9.23225C1.70107 8.76341 2.33696 8.50002 3 8.50002H3.5V8.00002V0.500015L8.892 0.500017L8.89358 0.500012C9.31737 0.498672 9.73445 0.605821 10.1051 0.811261C10.4758 1.0167 10.7877 1.31359 11.0112 1.67367L11.012 1.67498L15.13 8.26498L15.2768 8.50002H15.554H18H18.5V8.00002V5.50002H19.5V8.00002ZM3.52513 20.4749C4.1815 21.1313 5.07174 21.5 6 21.5C6.92826 21.5 7.8185 21.1313 8.47487 20.4749C9.13125 19.8185 9.5 18.9283 9.5 18C9.5 17.0718 9.13125 16.1815 8.47487 15.5251C7.8185 14.8688 6.92826 14.5 6 14.5C5.07174 14.5 4.1815 14.8688 3.52513 15.5251C2.86875 16.1815 2.5 17.0718 2.5 18C2.5 18.9283 2.86875 19.8185 3.52513 20.4749ZM16.3787 21.6213C16.9413 22.1839 17.7043 22.5 18.5 22.5C19.2957 22.5 20.0587 22.1839 20.6213 21.6213C21.1839 21.0587 21.5 20.2957 21.5 19.5C21.5 18.7044 21.1839 17.9413 20.6213 17.3787C20.0587 16.8161 19.2957 16.5 18.5 16.5C17.7043 16.5 16.9413 16.8161 16.3787 17.3787C15.8161 17.9413 15.5 18.7044 15.5 19.5C15.5 20.2957 15.8161 21.0587 16.3787 21.6213Z" stroke="white"/>
</svg>
