<svg width="24" height="24" viewBox="0 0 24 24" fill="none" xmlns="http://www.w3.org/2000/svg">
<path d="M19.989 11.9998H18.653C17.69 9.73285 16.2074 7.72413 14.325 6.13576C13.4278 5.40218 12.3049 5.0009 11.146 4.99976H8.818L8.11 2.31476C8.00593 1.92014 7.82515 1.54988 7.57798 1.22512C7.33082 0.900362 7.0221 0.627469 6.66947 0.422019C6.31684 0.21657 5.9272 0.0825874 5.52279 0.0277226C5.11838 -0.0271423 4.70712 -0.00181539 4.3125 0.102257C3.91788 0.20633 3.54762 0.38711 3.22286 0.634276C2.89811 0.881442 2.62521 1.19015 2.41976 1.54278C2.21431 1.89541 2.08033 2.28506 2.02547 2.68947C1.9706 3.09388 1.99593 3.50514 2.1 3.89976L2.394 4.99976H1C0.734784 4.99976 0.48043 5.10511 0.292893 5.29265C0.105357 5.48019 0 5.73454 0 5.99976C0 6.26497 0.105357 6.51933 0.292893 6.70686C0.48043 6.8944 0.734784 6.99976 1 6.99976H11.146C11.8438 7.00158 12.5195 7.24425 13.059 7.68676C14.4732 8.87733 15.626 10.3474 16.445 12.0048H15.625C15.0239 12.0003 14.4351 12.1743 13.933 12.5048L11.949 13.8268C11.7871 13.9373 11.5961 13.9975 11.4 13.9998H1C0.734784 13.9998 0.48043 14.1051 0.292893 14.2927C0.105357 14.4802 0 14.7345 0 14.9998C0 15.265 0.105357 15.5193 0.292893 15.7069C0.48043 15.8944 0.734784 15.9998 1 15.9998H11.4C11.9919 16.0014 12.571 15.8274 13.064 15.4998L15.047 14.1778C15.2152 14.0613 15.4166 14.0024 15.621 14.0098H19.99C20.3294 14.0085 20.6636 14.0937 20.961 14.2573C21.2584 14.4209 21.5093 14.6575 21.69 14.9448C21.8734 15.2259 21.9811 15.5496 22.0027 15.8846C22.0242 16.2196 21.9589 16.5544 21.813 16.8568C21.0792 18.3954 19.9249 19.6949 18.4836 20.605C17.0422 21.5152 15.3727 21.9987 13.668 21.9998H1C0.734784 21.9998 0.48043 22.1051 0.292893 22.2927C0.105357 22.4802 0 22.7345 0 22.9998C0 23.265 0.105357 23.5193 0.292893 23.7069C0.48043 23.8944 0.734784 23.9998 1 23.9998H13.668C15.7517 23.9955 17.7917 23.4016 19.552 22.2868C21.3124 21.1719 22.7214 19.5816 23.616 17.6998C23.9025 17.0897 24.0301 16.4171 23.9871 15.7445C23.9441 15.0718 23.7318 14.421 23.3699 13.8524C23.0081 13.2837 22.5085 12.8157 21.9174 12.4919C21.3263 12.168 20.663 11.9987 19.989 11.9998ZM4.037 3.38776C3.97168 3.10721 4.01828 2.81225 4.16691 2.56551C4.31555 2.31877 4.5545 2.13968 4.83304 2.06627C5.11158 1.99286 5.40777 2.03091 5.6587 2.17235C5.90964 2.31378 6.09557 2.54746 6.177 2.82376L6.75 4.99976H4.462L4.037 3.38776ZM0 9.99976C0 9.73454 0.105357 9.48019 0.292893 9.29265C0.48043 9.10511 0.734784 8.99976 1 8.99976H10C10.2652 8.99976 10.5196 9.10511 10.7071 9.29265C10.8946 9.48019 11 9.73454 11 9.99976C11 10.265 10.8946 10.5193 10.7071 10.7069C10.5196 10.8944 10.2652 10.9998 10 10.9998H1C0.734784 10.9998 0.48043 10.8944 0.292893 10.7069C0.105357 10.5193 0 10.265 0 9.99976ZM4 19.9998C3.80222 19.9998 3.60888 19.9411 3.44443 19.8312C3.27998 19.7213 3.15181 19.5652 3.07612 19.3824C3.00043 19.1997 2.98063 18.9986 3.01922 18.8047C3.0578 18.6107 3.15304 18.4325 3.29289 18.2927C3.43275 18.1528 3.61093 18.0576 3.80491 18.019C3.99889 17.9804 4.19996 18.0002 4.38268 18.0759C4.56541 18.1516 4.72159 18.2797 4.83147 18.4442C4.94135 18.6086 5 18.802 5 18.9998C5 19.265 4.89464 19.5193 4.70711 19.7069C4.51957 19.8944 4.26522 19.9998 4 19.9998ZM8 19.9998C7.80222 19.9998 7.60888 19.9411 7.44443 19.8312C7.27998 19.7213 7.15181 19.5652 7.07612 19.3824C7.00043 19.1997 6.98063 18.9986 7.01922 18.8047C7.0578 18.6107 7.15304 18.4325 7.29289 18.2927C7.43275 18.1528 7.61093 18.0576 7.80491 18.019C7.99889 17.9804 8.19996 18.0002 8.38268 18.0759C8.56541 18.1516 8.72159 18.2797 8.83147 18.4442C8.94135 18.6086 9 18.802 9 18.9998C9 19.265 8.89464 19.5193 8.70711 19.7069C8.51957 19.8944 8.26522 19.9998 8 19.9998ZM12 19.9998C11.8022 19.9998 11.6089 19.9411 11.4444 19.8312C11.28 19.7213 11.1518 19.5652 11.0761 19.3824C11.0004 19.1997 10.9806 18.9986 11.0192 18.8047C11.0578 18.6107 11.153 18.4325 11.2929 18.2927C11.4327 18.1528 11.6109 18.0576 11.8049 18.019C11.9989 17.9804 12.2 18.0002 12.3827 18.0759C12.5654 18.1516 12.7216 18.2797 12.8315 18.4442C12.9414 18.6086 13 18.802 13 18.9998C13 19.265 12.8946 19.5193 12.7071 19.7069C12.5196 19.8944 12.2652 19.9998 12 19.9998Z" fill="white"/>
</svg>
