<svg width="18" height="22" viewBox="0 0 18 22" fill="none" xmlns="http://www.w3.org/2000/svg">
<path d="M16.4998 2.50017V2.50005H12.9998H12.4998V2.00005V1.50041C12.4998 1.48999 12.4996 1.47958 12.4993 1.46919C12.4996 1.47938 12.4997 1.4896 12.4997 1.49985V1.50016V2.50015H12.9997H16.4998C16.4998 2.50015 16.4998 2.50017 16.4998 2.50017ZM16.4998 2.50017C16.5 2.50017 16.5002 2.50015 16.5004 2.50015M16.4998 2.50017L16.5004 2.50015M16.5004 2.50015L16.505 2.50005M16.5004 2.50015C16.5638 2.50019 16.6258 2.50614 16.686 2.51747M16.505 2.50005L12 8.90789C12.2916 8.80527 12.5442 8.61476 12.7234 8.36262C12.9025 8.1105 12.9991 7.80917 13 7.49995V5.50003V5.00003H13.5H16.5C17.0359 5.00003 17.5311 4.71409 17.7991 4.25003C18.067 3.78597 18.067 3.21409 17.7991 2.75004M16.505 2.50005C16.5663 2.50036 16.6269 2.50628 16.686 2.51747M16.505 2.50005L16.5108 2.49993L16.511 2.49992L16.5 2.00004M16.505 2.50005C16.5033 2.50005 16.5017 2.50004 16.5 2.50004V2.00794V2.00004M16.505 2.50005L16.4998 2.00005L16.5 2.00004M16.686 2.51747C16.7736 2.53405 16.858 2.56218 16.9372 2.60068M16.686 2.51747C16.7744 2.53412 16.8586 2.56241 16.9372 2.60068M16.9372 2.60068C17.2702 2.76299 17.4998 3.10485 17.4998 3.50021C17.4998 3.56413 17.4938 3.62665 17.4823 3.68724M16.9372 2.60068C17.1138 2.68658 17.2644 2.82408 17.3661 2.99999M17.4823 3.68724C17.4618 3.79533 17.4232 3.90078 17.3667 3.99901M17.4823 3.68724C17.4612 3.79882 17.4216 3.90385 17.3667 3.99901M17.4823 3.68724C17.5265 3.45511 17.4878 3.21084 17.3661 2.99999M17.3667 3.99901C17.3051 4.10583 17.2243 4.2002 17.1291 4.27742M17.3667 3.99901C17.3665 3.99937 17.3663 3.99972 17.3661 4.00008M17.1291 4.27742C16.9537 4.41921 16.7326 4.50003 16.5 4.50003H16.4998H13H12.9997H12.5V4.50026M17.1291 4.27742C16.9572 4.41671 16.7384 4.5002 16.5 4.50026C16.4999 4.50026 16.4998 4.50026 16.4998 4.50026H13H12.9997H12.5M17.1291 4.27742C17.223 4.20146 17.3037 4.10799 17.3661 4.00008M12.5 4.50026H12.4997V7.50013V7.50043C12.4997 7.51548 12.4994 7.53045 12.4987 7.54533C12.4995 7.53 12.4999 7.51464 12.5 7.49924V5.00003V4.50026ZM17.3661 4.00008L17.7987 4.24978L17.3661 3.99999C17.3661 4.00002 17.3661 4.00005 17.3661 4.00008ZM17.3661 2.99999C17.3661 3.00003 17.3661 3.00007 17.3661 3.00011L17.7991 2.75004M17.3661 2.99999L17.7991 2.75004M17.7991 2.75004C17.5311 2.28598 17.0359 2.00004 16.5 2.00004M10.5013 14.9999C10.6334 14.9998 10.7601 14.9471 10.8536 14.8536C10.9475 14.7598 11.0001 14.6326 11.0001 14.5V11.707L10.5013 14.9999ZM10.5013 14.9999C10.5008 14.9999 10.5004 14.9999 10.5 14.9999L10.4994 15.4999C10.4996 15.4999 10.4998 15.4999 10.5 15.4999V18.3818L10.9209 19.2236H10.6381L10.5001 19.4997L10.5 19.4998M10.5013 14.9999L5.68421 8.07304C5.80363 8.24111 5.97191 8.36794 6.16599 8.43625L6.27577 8.47489M10.5 19.4998L10.0528 18.6054L10 18.4998V18.3818V14.9999V14.4998M10.5 19.4998L10.5 19.4998L10.5 19.4999M10.5 19.4998L10.5 19.4999M10 14.4998H10.4147M10 14.4998H9.99969H8M10 14.4998V14.4993L10.4147 14.4998M10.4147 14.4998L10.5001 14.4999M10.4147 14.4998H10.4997V13.9998V11.9998V11.5002M10.5001 14.4999V14.5L10.5 14.5L10.5001 14.5H10.5001L10.5005 14.4999L10.5006 14.4999H10.5005L10.5002 14.4999L10.5003 14.4997L10.5001 14.4999H10.5001ZM10.5001 14.4999V11.707V11.4999L10.4997 11.5002H10.4997M10.4997 11.5002V11.4998H10.2927H9.99969H7.9998H7.70682H7.49985L7.35358 11.3535L7.35349 11.3534L6.64652 10.6464L6.50004 10.5L6.5 10.4999V10.2932V9.00012V8.90789V8.5538L6.49968 8.55369M10.4997 11.5002H10.2927H9.99969H7.9998H7.70682H7.49994V11.707V11.9998V13.9998V14.4998M6.49968 8.55369V8.50018M6.49968 8.55369L6.27577 8.47489M6.49968 8.55369V8.90789V9.00012V10.2932V10.4999V10.5003V10.5003L6.64617 10.6468L7.35323 11.3537L7.35331 11.3538L7.49975 11.5002H7.4998V11.707V11.9998V13.9998V14.4998H7.49994M6.49968 8.50018H6.49997H6.99968H10.9998H11.4997H11.4998M6.49968 8.50018V8.50012H6.49997H6.99968H10.9998H11.4997H11.4998V8.50018M6.49968 8.50018H6.49966C6.42269 8.50014 6.34775 8.4914 6.27577 8.47489M11.4998 8.50018V9.00012V10.2932V10.5001M11.4998 8.50018H11.5C11.5773 8.50014 11.6525 8.49132 11.7248 8.47468L11.5 8.55378V8.90789V10.4999L11.5 10.5L11.4998 10.5001M11.4998 10.5001L11.3532 10.6467L10.6465 11.3534L10.6462 11.3538L10.5512 11.4487L10.6462 11.3538L10.6465 11.3534L11.3533 10.6468L11.4998 10.5003V10.5001ZM6.27577 8.47489C6.2376 8.46613 6.20026 8.45519 6.16389 8.44221C5.96755 8.37211 5.79953 8.2424 5.68163 8.07487L5.27661 8.36263M7.49994 14.4998V14.4999M7.49994 14.4998H7.58888M7.49994 14.4999H7.49985L7.49966 14.4997L7.49984 14.4999L7.49948 14.4999H7.49937L7.49946 14.4999L7.49991 14.5H7.49994L7.49998 14.5L7.49994 14.5V14.4999ZM7.49994 14.4999L7.58888 14.4998M7.58888 14.4998H7.9998H8M7.58888 14.4998L7.9998 14.4993H8V14.4998M8 14.4998V14.4999M8 14.4999H7.99967V14.9999V14.9999V18.3818V18.4999L7.99994 18.4995L8 18.4996M8 14.4999V14.9999V14.9999V18.3818V18.4996M8 14.4999H8.49967H9.49961H9.99959L9.99961 14.9999L9.99978 18.4999L9.99951 18.4995L9.99969 18.4999L9.99974 18.5L10.3878 19.2763L10.4996 19.4999L10.3878 19.7235L9.63779 21.2234L9.49959 21.4998H9.19057H8.80888H8.4999L8.49998 21.5L9.50002 21.5L9.50004 21.5L10.5 19.5L10.5 19.4999M8 18.4996V18.4998L7.99999 18.4998M8 18.4996L8.00046 18.4999L8.00122 18.5005M7.99999 18.4998L7.99989 18.4998L7.99983 18.4999L7.9471 18.6054L7.61166 19.2762L7.94719 18.6054L7.99995 18.4999L7.99999 18.4998ZM7.99999 18.4998L8.00012 18.4999L8.00122 18.5005M8.00122 18.5005L8.41081 18.796L8.05888 19.4998L8.80888 20.9998H9.19057L9.94057 19.4998L9.55251 18.7236C9.51769 18.6541 9.49978 18.5776 9.49978 18.4999L9.49961 15.4999V14.9999H8.99967H8.49967V15.4999V18.4999C8.49967 18.5499 8.49226 18.5993 8.47772 18.6468L8.274 18.4999L8.09355 18.3699L8.09338 18.37L8.22327 18.4999L8.44643 18.7231L8.23714 18.6184L8.00122 18.5005ZM10.5 19.4999L10.5 19.5L10.5 19.5002L10.7994 19.6497L10.9472 19.7235L10.9473 19.7236M10.9473 19.7236H10.9472L9.94723 21.7236C9.8625 21.893 9.6894 22 9.50006 22H8.49994C8.31058 22 8.13748 21.893 8.05277 21.7236H8.0526M10.9473 19.7236C11.0177 19.5828 11.0177 19.4172 10.9473 19.2764V19.7236ZM8.0526 21.7236L8.05277 21.7235L8.49982 21.5L8.36163 21.2236M8.0526 21.7236V21.2236H8.05277H8.36163M8.0526 21.7236L7.05266 19.7236M8.36163 21.2236H8.36174L8.36166 21.2234L7.61166 19.7235L7.49999 19.5001M8.36163 21.2236L7.49999 19.5002M7.49999 19.5001L7.49998 19.4998L7.55266 19.3943V19.3943V19.2764V19.2762H7.05266M7.49999 19.5001L7.49986 19.4998L7.49985 19.4999L7.2842 19.392L7.05299 19.2764L7.05266 19.2762M7.49999 19.5001L7.49999 19.5002M7.05266 19.2762L7.5 18.3818V15.4999C7.50021 15.4999 7.50042 15.4999 7.50063 15.4999L7.5 14.9999C7.49958 14.9999 7.49916 14.9999 7.49874 14.9999C7.36661 14.9998 7.23988 14.9471 7.14643 14.8536C7.05251 14.7599 6.99994 14.6326 6.99994 14.5V11.707L6.14648 10.8535C6.05273 10.7598 6 10.6325 6 10.4999V8.90789C5.70835 8.80525 5.45574 8.61474 5.27661 8.36263M7.05266 19.2762V19.2764C6.98234 19.4172 6.98234 19.5828 7.05266 19.7236M5.27661 8.36263L5.68162 8.07486L5.27661 8.36263ZM7.49999 19.5002L7.49988 19.5L7.05266 19.7236M7.49999 19.5002L7.05266 19.7236M5.49991 2.50005V4.50003H5.00005H2.77702L4.9999 4.49992L5.49988 4.4999V3.99992V2.99998V2.50005H5.49991ZM6.49965 0.50028C6.45944 0.500305 6.41978 0.502704 6.3808 0.507343C6.42028 0.502536 6.46022 0.500062 6.50041 0.5H11.4994C11.5415 0.500067 11.5832 0.502772 11.6245 0.508025C11.5837 0.502938 11.5421 0.500306 11.5 0.50028H11.4997L6.49997 0.50028L6.49965 0.50028ZM5.49991 1.49999H5.00005C5.00039 1.10241 5.1586 0.72105 5.43985 0.439969L5.49991 1.49999Z" fill="black" stroke="white"/>
</svg>
