<svg width="24" height="24" viewBox="0 0 24 24" fill="none" xmlns="http://www.w3.org/2000/svg">
<path d="M22.0488 19.5539C22.3568 20.2979 22.7845 20.9853 23.3139 21.5891L22.6092 22.2938C21.9866 21.5968 21.4849 20.7992 21.126 19.9338C20.7033 18.9147 20.4871 17.8218 20.4898 16.7185V16.7172V13.9872V13.4872H19.9898H16.9998H16.4998V13.9872V15.0002V15.1635L16.5962 15.2953C17.0873 15.967 17.384 16.761 17.4537 17.5902C17.5233 18.4193 17.3634 19.2517 16.9912 19.9959C16.6191 20.7402 16.0492 21.3676 15.3441 21.8093C14.6398 22.2506 13.8277 22.4896 12.9966 22.5002H5.00326C4.17169 22.4888 3.35929 22.2487 2.65503 21.8063C1.94988 21.3634 1.3804 20.7347 1.00912 19.9894C0.637827 19.244 0.479079 18.4107 0.5503 17.5811C0.62152 16.7514 0.919955 15.9574 1.41284 15.2862L1.51011 15.1537L1.50984 14.9894L1.49984 9.00023C1.49984 9.00008 1.49984 8.99993 1.49984 8.99978C1.49996 8.3369 1.76334 7.7012 2.23207 7.23247C2.70091 6.76363 3.3368 6.50023 3.99984 6.50023H4.99984H5.49984V6.00023V1.49023H9.11664C9.59944 1.49064 10.0718 1.63083 10.4766 1.89388C10.8815 2.15696 11.2016 2.53167 11.3981 2.97273L11.3984 2.97345L14.2174 9.27345L14.3186 9.49958L14.5598 9.55607C15.1089 9.68465 15.5984 9.9951 15.9488 10.437C16.2992 10.8789 16.4898 11.4263 16.4898 11.9902L16.4898 12.4902H16.9898H19.9898H20.4898V11.9902V8.50023H21.4898L21.4898 16.7187C21.4898 16.7189 21.4898 16.7191 21.4898 16.7193C21.4869 17.6918 21.6769 18.6553 22.0488 19.5539ZM6.99984 2.49023H6.49984V2.99023V8.99023V9.49023H6.99984H12.4478H13.2192L12.9043 8.78608L10.4853 3.37824C10.4853 3.37818 10.4853 3.37813 10.4853 3.37808C10.3672 3.11394 10.1752 2.88959 9.93256 2.73206C9.68983 2.5745 9.40671 2.49052 9.11733 2.49023H9.11684H6.99984ZM5.49984 8.00023V7.50023H4.99984H3.99984C3.60201 7.50023 3.22048 7.65827 2.93918 7.93957C2.65787 8.22088 2.49984 8.60241 2.49984 9.00023L2.49984 9.00103L2.50684 13.416L2.50805 14.1787L3.20695 13.8734C3.77219 13.6266 4.38245 13.4995 4.99925 13.5002H4.99984H12.9998H13.0004C13.6162 13.4996 14.2256 13.626 14.7904 13.8717L15.4898 14.176V13.4132V11.9902C15.4898 11.5924 15.3318 11.2109 15.0505 10.9296C14.7692 10.6483 14.3877 10.4902 13.9898 10.4902H5.50486L5.49984 9.98771V8.00023ZM12.9998 13.0002H4.99984H12.9998ZM4.99984 21.5002H12.9998C13.9281 21.5002 14.8183 21.1315 15.4747 20.4751C16.1311 19.8187 16.4998 18.9285 16.4998 18.0002C16.4998 17.072 16.1311 16.1817 15.4747 15.5254C14.8183 14.869 13.9281 14.5002 12.9998 14.5002H4.99984C4.07158 14.5002 3.18134 14.869 2.52496 15.5254C1.86859 16.1817 1.49984 17.072 1.49984 18.0002C1.49984 18.9285 1.86859 19.8187 2.52496 20.4751C3.18134 21.1315 4.07158 21.5002 4.99984 21.5002ZM5.49984 18.0002C5.49984 18.1328 5.44716 18.26 5.35339 18.3538C5.25962 18.4476 5.13245 18.5002 4.99984 18.5002C4.86723 18.5002 4.74005 18.4476 4.64628 18.3538C4.55252 18.26 4.49984 18.1328 4.49984 18.0002C4.49984 17.8676 4.55252 17.7404 4.64628 17.6467C4.74005 17.5529 4.86723 17.5002 4.99984 17.5002C5.13245 17.5002 5.25962 17.5529 5.35339 17.6467C5.44716 17.7404 5.49984 17.8676 5.49984 18.0002ZM13.4998 18.0002C13.4998 18.1328 13.4472 18.26 13.3534 18.3538C13.2596 18.4476 13.1324 18.5002 12.9998 18.5002C12.8672 18.5002 12.7401 18.4476 12.6463 18.3538C12.5525 18.26 12.4998 18.1328 12.4998 18.0002C12.4998 17.8676 12.5525 17.7404 12.6463 17.6467C12.7401 17.5529 12.8672 17.5002 12.9998 17.5002C13.1324 17.5002 13.2596 17.5529 13.3534 17.6467C13.4472 17.7404 13.4998 17.8676 13.4998 18.0002ZM9.49984 18.0002C9.49984 18.1328 9.44716 18.26 9.35339 18.3538C9.25962 18.4476 9.13245 18.5002 8.99984 18.5002C8.86723 18.5002 8.74005 18.4476 8.64628 18.3538C8.55252 18.26 8.49984 18.1328 8.49984 18.0002C8.49984 17.8676 8.55252 17.7404 8.64628 17.6467C8.74005 17.5529 8.86723 17.5002 8.99984 17.5002C9.13245 17.5002 9.25962 17.5529 9.35339 17.6467C9.44716 17.7404 9.49984 17.8676 9.49984 18.0002Z" stroke="white"/>
</svg>
