<svg width="23" height="20" viewBox="0 0 23 20" fill="none" xmlns="http://www.w3.org/2000/svg">
<path fill-rule="evenodd" clip-rule="evenodd" d="M4.93585 2.04075H8.62364C8.72965 1.45196 9.27727 1 9.93144 1C10.5855 1 11.1331 1.45195 11.2391 2.04075H14.9711C15.1037 2.04075 15.1921 2.12403 15.1921 2.24894C15.1921 2.35285 15.1037 2.45694 14.9711 2.45694H11.2391C11.1453 2.97796 10.7056 3.39179 10.1523 3.48025V4.33024H11.5008C11.6334 4.33024 11.7219 4.41351 11.7219 4.53842V6.16191H14.75C14.8827 6.16191 14.9711 6.24518 14.9711 6.36992C14.9711 6.47401 14.8827 6.5781 14.75 6.5781H13.247V9.09658C13.247 9.59623 13.689 10.0124 14.2196 10.0124H16.0542C18.6846 10.0124 20.8065 12.0314 20.8065 14.4874V17.7968H21.116C21.6024 17.7968 22.0001 18.1716 22.0001 18.6294C22.0001 19.0874 21.6023 19.4619 21.116 19.4619H15.5234C15.0372 19.4619 14.6392 19.0873 14.6392 18.6294C14.6392 18.1715 15.0372 17.7968 15.5234 17.7968H15.8329V16.423C15.8329 15.4865 15.0151 14.7164 14.0204 14.7164C13.6005 14.7164 13.2246 14.9661 13.092 15.3408C12.65 16.652 11.39 17.5262 9.93121 17.5262C8.47223 17.5262 7.21241 16.652 6.77022 15.3408C6.65967 14.9869 6.2619 14.7164 5.84186 14.7164H3.91878V15.5698C3.89667 16.1317 3.41046 16.6105 2.81371 16.6105H2.50419C1.90744 16.6105 1.39893 16.1525 1.39893 15.5698V9.15935C1.39893 8.59725 1.88533 8.1186 2.50419 8.1186H2.81371C3.41046 8.1186 3.91878 8.57643 3.91878 9.15935V10.0334H5.6429C6.17352 10.0334 6.61547 9.6172 6.61547 9.11758V6.57828H5.11247C4.97982 6.57828 4.89138 6.49501 4.89138 6.3701C4.89138 6.24537 4.97982 6.16209 5.11247 6.16209H8.14082V4.5386C8.14082 4.41369 8.22925 4.33042 8.36171 4.33042H9.71015V3.48043C9.15685 3.392 8.71736 2.97814 8.62342 2.45712H4.93563C4.80298 2.45712 4.71454 2.37385 4.71454 2.24912C4.71454 2.12421 4.80298 2.04094 4.93563 2.04094L4.93585 2.04075ZM11.2797 6.16191V4.74663H8.583V6.16191H11.2797ZM7.0579 6.5781V9.09658C7.0579 9.82504 6.41674 10.4288 5.64313 10.4288H3.91901V14.2793H5.8421C6.46095 14.2793 7.01368 14.654 7.19054 15.1951C7.5662 16.3399 8.67143 17.0892 9.93144 17.0892C11.1913 17.0892 12.2965 16.3191 12.6723 15.1951C12.849 14.654 13.4017 14.2793 14.0206 14.2793C15.2585 14.2793 16.2753 15.2368 16.2753 16.4022V17.7968H20.3644V14.4666C20.3644 12.2186 18.4193 10.4079 16.0542 10.4079H14.2195C13.4459 10.4079 12.8047 9.80417 12.8047 9.07572V6.57805L7.0579 6.5781ZM10.8156 2.24896C10.8156 2.70679 10.4177 3.08131 9.93149 3.08131C9.44508 3.08131 9.04735 2.70676 9.04735 2.24896C9.04735 1.79094 9.44512 1.41642 9.93149 1.41642C10.4177 1.41642 10.8156 1.79097 10.8156 2.24896ZM3.47721 10.1425V9.15926C3.47721 8.82617 3.1898 8.53471 2.81414 8.53471H2.50462C2.15088 8.53471 1.84155 8.80535 1.84155 9.15926V15.5697C1.84155 15.9026 2.12877 16.1941 2.50462 16.1941H2.81414C3.16769 16.1941 3.47721 15.9234 3.47721 15.5697V14.6071C3.46285 14.5784 3.4551 14.545 3.4551 14.5081V10.2412C3.4551 10.2042 3.46285 10.171 3.47721 10.1423V10.1425ZM15.5239 18.2343C15.2809 18.2343 15.0819 18.4216 15.0819 18.6504C15.0819 18.8794 15.2809 19.0668 15.5239 19.0668H21.1165C21.3597 19.0668 21.5587 18.8794 21.5587 18.6504C21.5587 18.4216 21.3597 18.2343 21.1165 18.2343H15.5239Z" fill="white" stroke="white"/>
</svg>
