<svg width="150" height="34" viewBox="0 0 150 34" fill="none" xmlns="http://www.w3.org/2000/svg">
<path fill-rule="evenodd" clip-rule="evenodd" d="M37.8482 2.64289H19.0312C16.4887 2.64289 13.5176 2.5362 11.8576 3.90179C9.98418 5.42699 9.63596 7.11349 9.39527 7.86286C9.15458 8.55846 6.53094 15.8661 6.53094 15.8661C6.53094 15.8661 5.64757 18.1142 6.77248 19.6138C7.89653 21.1125 9.76995 21.6212 10.9742 21.6212H22.3232C22.3232 21.6212 22.9923 21.5683 23.0725 21.7817C23.1792 22.0223 22.8318 22.9859 22.4836 23.842C22.1627 24.6724 21.8682 25.6625 21.3058 25.6625H2.67656L0 33.0777H23.4207C23.4207 33.0777 25.3479 33.2654 27.4091 31.6592C29.4703 30.0529 30.5944 25.6634 30.5944 25.6634L32.414 20.5509C32.414 20.5509 33.2974 18.3028 32.5216 16.8843C31.7449 15.4658 30.5944 14.3417 28.8541 14.3417H16.702C16.702 14.3417 15.9791 14.3682 16.0602 13.9141C16.1669 13.4319 16.6756 12.1739 16.8096 11.7992C16.97 11.4253 17.3985 10.0333 18.2016 10.0333H35.2784L37.8482 2.64289ZM39.0525 33.0777H48.2336L56.5048 10.0316H66.1407L68.9777 2.64289H40.4172L37.8482 10.0316H47.0822L39.0525 33.0777ZM60.7603 33.0777H69.914L80.8089 2.64289H71.7883L60.7603 33.0777ZM87.4201 2.64289H96.1718L92.5325 13.4038H103.721L107.762 2.64289H116.382L105.622 33.0777H96.7078L101.017 20.5501H89.8551L85.2778 33.0777H76.4996L87.4201 2.64289ZM122.858 2.64289H132.013L124.063 25.6625H143.469L141.033 33.0777H111.938L122.858 2.64289ZM144.914 11.0216C145.582 11.0219 146.243 10.8905 146.861 10.635C147.478 10.3794 148.039 10.0048 148.511 9.5325C148.983 9.06018 149.358 8.49942 149.613 7.88226C149.869 7.2651 150 6.60364 150 5.93567C150 3.09866 147.725 0.823242 144.914 0.823242C142.077 0.823242 139.828 3.09866 139.828 5.93567C139.826 6.60427 139.955 7.26674 140.21 7.88492C140.465 8.5031 140.839 9.06476 141.312 9.53753C141.785 10.0103 142.347 10.3848 142.965 10.6396C143.583 10.8943 144.245 11.0241 144.914 11.0216ZM144.914 9.81737C142.693 9.81737 141.033 8.18463 141.033 5.93567C141.033 3.66026 142.693 2.02837 144.914 2.02837C147.083 2.02837 148.795 3.66111 148.795 5.93567C148.795 8.18378 147.083 9.81737 144.914 9.81737ZM146.066 6.2839C147.003 6.20367 147.511 5.82898 147.511 4.83808C147.511 3.44688 146.681 3.23266 145.449 3.23266H142.88V8.50555H144.057V6.2839H144.888L146.066 8.50555H147.35L146.066 6.2839ZM144.057 5.48076V4.14248H145.209C145.718 4.14248 146.413 4.14248 146.413 4.67762C146.413 5.34676 146.066 5.48076 145.476 5.48076H144.057Z" fill="#0C1D0D"/>
</svg>
