<svg width="150" height="45" viewBox="0 0 150 45" fill="none" xmlns="http://www.w3.org/2000/svg">
<path fill-rule="evenodd" clip-rule="evenodd" d="M17.7843 43.5429H24.8657L35.2058 18.0738H25.429L21.3254 29.2998L17.2611 18.0738H7.44332L17.7843 43.5429ZM33.6772 7.00824C36.0917 5.59997 37.5802 4.43324 40.3157 0.811868C41.0403 -0.516169 42.6491 -0.154289 42.6491 1.4554C42.6892 4.87535 40.034 11.0717 36.8547 13.4461C36.2522 10.9522 35.1264 8.81935 33.6772 7.00824ZM5.83449 13.4461C2.65522 11.0717 0 4.87535 0 1.4554C0 -0.154289 1.60969 -0.516169 2.37357 0.811868C5.10987 4.43324 6.55825 5.59997 8.97193 7.00824C7.52441 8.81935 6.39779 10.9522 5.83449 13.4461ZM35.4081 43.5429H45.1848V18.0738H35.4081V43.5429ZM48.2028 43.5429H57.9804V33.6851L65.1421 43.5429H75.4019L65.504 30.0236L75.4019 18.0738H65.1421L57.9804 26.7641V18.0738H48.2028V43.5429ZM75.6042 43.5429H85.381V18.0738H75.6042V43.5429ZM88.3981 43.5429H97.5732V32.3169L107.189 43.5429H115.236V18.0738H106.061V29.2998L96.4466 18.0738H88.3981V43.5429ZM141.39 28.4139H130.486V34.8518H133.584V37.3056C130.003 37.7494 126.221 35.6165 126.221 30.9487C126.221 26.4833 129.439 23.7068 133.745 23.7068C136.079 23.7068 138.894 24.5919 140.907 25.9601V19.1603C138.653 17.8724 135.274 17.2288 132.297 17.2288C121.715 17.2288 116.806 23.9876 116.806 30.9496C116.806 37.8305 121.072 44.2675 132.297 44.2675C135.354 44.2675 139.177 43.6641 141.39 42.8191V28.4139ZM21.3254 0.36976C22.854 0.36976 26.4353 2.78344 27.9639 3.82983C30.7002 5.72117 35.2869 10.4692 35.4874 15.981H7.16167C7.40321 10.4692 11.9899 5.72117 14.7262 3.82983C16.2147 2.78344 19.8369 0.36976 21.3254 0.36976ZM143.12 19.1603C143.12 17.2288 144.648 15.6994 146.539 15.6994C146.994 15.696 147.446 15.7832 147.867 15.9559C148.289 16.1286 148.672 16.3834 148.994 16.7055C149.316 17.0275 149.571 17.4104 149.743 17.8318C149.916 18.2533 150.003 18.7048 150 19.1603C150 21.0516 148.471 22.5802 146.539 22.5802C146.09 22.5806 145.645 22.4923 145.23 22.3206C144.815 22.1488 144.438 21.8969 144.12 21.5793C143.803 21.2616 143.551 20.8845 143.379 20.4694C143.208 20.0543 143.119 19.6095 143.12 19.1603ZM143.642 19.1603C143.641 18.7794 143.715 18.4019 143.86 18.0497C144.005 17.6975 144.218 17.3775 144.488 17.1081C144.757 16.8387 145.077 16.6254 145.429 16.4803C145.781 16.3352 146.159 16.2612 146.54 16.2627C148.15 16.2627 149.437 17.5506 149.437 19.1603C149.437 20.77 148.15 22.057 146.54 22.057C146.159 22.0587 145.781 21.985 145.429 21.84C145.077 21.695 144.757 21.4817 144.487 21.2124C144.218 20.9431 144.005 20.6231 143.86 20.2709C143.715 19.9187 143.641 19.5412 143.642 19.1603ZM146.701 19.2004H145.896V20.8903H145.293V17.35H146.862C146.862 17.35 147.948 17.2698 147.948 18.2752C147.948 18.8394 147.586 19.0399 147.264 19.1202L147.988 20.8903H147.385L146.701 19.2004ZM145.895 17.7921V18.7173H146.66C146.66 18.7173 147.344 18.7574 147.344 18.2744C147.344 17.7512 146.66 17.7921 146.66 17.7921H145.895Z" fill="#0C1D0D"/>
</svg>
