<svg width="150" height="35" viewBox="0 0 150 35" fill="none" xmlns="http://www.w3.org/2000/svg">
<path fill-rule="evenodd" clip-rule="evenodd" d="M28.4653 29.2466C25.4567 32.2561 21.2284 34.0075 16.9739 34.0075C12.7195 34.0075 8.49118 32.2561 5.48356 29.2466C2.47593 26.239 0.724526 22.0116 0.724526 17.7581C0.724526 13.5027 2.47593 9.27532 5.48356 6.2677C8.49118 3.26007 12.7195 1.50866 16.9739 1.50866C21.2284 1.50866 25.4567 3.26007 28.4653 6.2677C31.4729 9.27532 33.2243 13.5027 33.2243 17.7581C33.2243 22.0107 31.4729 26.239 28.4653 29.2466ZM28.9764 5.75472C25.8339 2.61324 21.4175 0.783203 16.9739 0.783203C12.5304 0.783203 8.11394 2.61324 4.97246 5.75472C1.83004 8.89621 0 13.3136 0 17.7581C0 22.2007 1.83004 26.6171 4.97246 29.7586C8.11394 32.901 12.5304 34.7311 16.9739 34.7311C21.4184 34.7311 25.8339 32.9029 28.9764 29.7586C32.1178 26.6171 33.9479 22.2007 33.9479 17.7581C33.9479 13.3136 32.1178 8.89621 28.9764 5.75472ZM16.0406 17.2179V18.2954L16.9738 18.8345L17.9071 18.2954V17.2179L16.9738 16.6788L16.0406 17.2179ZM17.7854 14.6362V12.3466C17.7842 12.1316 17.6988 11.9256 17.5477 11.7728C17.3979 11.622 17.1863 11.5359 16.9738 11.5359C16.7613 11.5359 16.5507 11.623 16.401 11.7728C16.2495 11.9255 16.1641 12.1315 16.1632 12.3466V14.6362L16.9748 15.1043L17.7854 14.6362ZM11.8816 19.7594C11.6963 19.8677 11.5606 20.044 11.5034 20.2508C11.4487 20.4586 11.4783 20.6796 11.5858 20.8656C11.6933 21.0516 11.8699 21.1876 12.0772 21.244C12.2852 21.2982 12.5061 21.2693 12.6931 21.1635L14.6758 20.0187V19.0826L13.8642 18.6146L11.8816 19.7594ZM22.0652 19.7594L20.0826 18.6146L19.271 19.0826V20.0206L21.2536 21.1654C21.4405 21.2718 21.6616 21.3007 21.8695 21.2459C22.0769 21.1893 22.2538 21.0535 22.3619 20.8677C22.4682 20.6811 22.4967 20.4601 22.4411 20.2526C22.3856 20.0452 22.2505 19.8679 22.0652 19.7594ZM28.5502 24.714C28.6012 24.7231 28.6539 24.7162 28.7009 24.6944C28.7482 24.6735 28.7873 24.6376 28.8123 24.5923C28.838 24.5474 28.8492 24.4956 28.8446 24.444C28.8399 24.3925 28.8195 24.3436 28.7861 24.304L26.4262 21.5519C26.3683 21.4837 26.2894 21.4366 26.2019 21.4178C26.1144 21.399 26.0231 21.4096 25.9423 21.448C25.712 21.5576 25.448 21.5941 25.1953 21.5519C24.9444 21.5098 24.7057 21.3891 24.5232 21.2103C24.3416 21.0324 24.2152 20.7956 24.1684 20.5447C24.0831 20.0923 23.9012 19.6636 23.6351 19.2878C23.3691 18.9121 23.0251 18.5981 22.6267 18.3674L21.5698 17.7589L27.5767 14.2908L26.8334 13.0037L20.0824 16.9015L19.2708 16.4335V15.4964L26.0218 11.5986L25.2786 10.3115L19.2708 13.7797V12.559C19.2704 12.0986 19.1706 11.6437 18.9782 11.2255C18.7858 10.8072 18.5053 10.4354 18.156 10.1355C17.9622 9.96889 17.8208 9.74236 17.7572 9.49523C17.6934 9.24587 17.7075 8.98296 17.7975 8.74183C17.8875 8.5007 18.0492 8.2929 18.2608 8.14634C18.3342 8.09507 18.3889 8.02128 18.4166 7.93615C18.4443 7.85103 18.4435 7.75919 18.4143 7.67455L17.2086 4.25412C17.1911 4.20525 17.159 4.16295 17.1167 4.13298C17.0743 4.103 17.0237 4.08679 16.9718 4.08656C16.9199 4.08679 16.8693 4.103 16.827 4.13298C16.7846 4.16295 16.7525 4.20525 16.735 4.25412L15.5302 7.67455C15.5011 7.75919 15.5003 7.85103 15.528 7.93615C15.5557 8.02128 15.6104 8.09507 15.6838 8.14634C15.895 8.29307 16.0568 8.50029 16.1481 8.74075C16.2373 8.98217 16.2507 9.2451 16.1865 9.49435C16.1223 9.74361 15.9834 9.9673 15.7886 10.1355C15.4404 10.4341 15.1586 10.8085 14.9658 11.2251C14.7748 11.6426 14.6747 12.1013 14.6747 12.559V13.7806L8.66691 10.3124L7.9246 11.5995L14.6756 15.4974V16.4344L13.864 16.9024L7.11302 13.0046L6.36977 14.2917L12.3775 17.7599L11.3207 18.3683C10.9216 18.5981 10.5771 18.9118 10.3111 19.2877C10.0451 19.6637 9.86386 20.0928 9.77991 20.5457C9.73217 20.7965 9.60673 21.0333 9.4242 21.2112C9.24166 21.39 9.0039 21.5108 8.75209 21.5529C8.50029 21.595 8.23631 21.5585 8.0051 21.449C7.92429 21.4104 7.83297 21.3997 7.74542 21.4185C7.65787 21.4373 7.57901 21.4845 7.52115 21.5529L5.16129 24.305C5.12777 24.3446 5.10719 24.3936 5.10232 24.4454C5.0993 24.4838 5.10513 24.5224 5.11935 24.5583C5.13357 24.5941 5.15581 24.6263 5.18436 24.6522C5.21291 24.6781 5.24702 24.6972 5.28407 24.7079C5.32112 24.7186 5.36013 24.7207 5.39812 24.714L8.96365 24.0466C9.05154 24.0298 9.13149 23.9847 9.19119 23.918C9.2509 23.8514 9.28705 23.767 9.29408 23.6778C9.30905 23.4859 9.36797 23.3001 9.46628 23.1346C9.56459 22.9692 9.69965 22.8285 9.861 22.7237C10.0224 22.6188 10.2057 22.5524 10.3968 22.5297C10.5879 22.5071 10.7817 22.5287 10.9631 22.5929C11.3973 22.7462 11.8595 22.8036 12.3179 22.7611C12.7764 22.7186 13.2202 22.5772 13.6188 22.3467L14.6756 21.7392V28.6746H16.1621V20.8798L16.9737 20.4118L17.7853 20.8798V28.6746H19.2727V21.7392L20.3286 22.3467C20.7273 22.5769 21.1711 22.7181 21.6295 22.7606C22.0879 22.8031 22.5501 22.7459 22.9843 22.5929C23.2272 22.5082 23.4901 22.4996 23.738 22.5684C23.9859 22.6371 24.2069 22.7799 24.3715 22.9776C24.5341 23.1772 24.6327 23.4212 24.6542 23.6778C24.6613 23.7671 24.6976 23.8516 24.7575 23.9183C24.8174 23.9849 24.8975 24.03 24.9856 24.0466L28.5502 24.714ZM16.9727 3.33957C20.748 3.33957 24.4988 4.89252 27.1676 7.56222C29.8373 10.2319 31.3912 13.9828 31.3912 17.758C31.3912 21.5332 29.8373 25.2841 27.1676 27.9538C24.4988 30.6216 20.747 32.1755 16.9727 32.1755C13.1985 32.1755 9.4476 30.6216 6.7779 27.9538C4.1082 25.2841 2.55524 21.5313 2.55524 17.758C2.55524 13.9828 4.1082 10.2319 6.7779 7.56222C9.4476 4.89346 13.1985 3.33957 16.9727 3.33957ZM114.795 3.61197V31.9012H119.748V19.4804H125.171V31.9012H130.235V3.61197H125.171V14.4555H119.748V3.61197H114.795ZM36.841 3.61197L42.3405 20.9594V31.9012H47.8428V20.3959L53.5435 3.61197H48.9118L45.1693 14.6334L41.7836 3.61197H36.841ZM76.2004 31.9012H71.7643V3.61197H79.4982L82.2503 17.0691L84.6251 3.61197H92.6848V31.9012H87.4839V10.2778L84.1271 29.1155H79.985L76.2004 10.5773V31.9012ZM141.076 7.95163L138.967 20.6037H143.122L141.076 7.95163ZM137.669 3.61197H145.33L150 31.9012H144.95L143.884 25.3178H138.18L137.082 31.9012H132.498L137.669 3.61197ZM103.525 7.95163L101.416 20.6037H105.571L103.525 7.95163ZM100.118 3.61197H107.779L112.448 31.9012H107.397L106.332 25.3178H100.629L99.5322 31.9012H94.9482L100.118 3.61197ZM60.4939 7.95163L58.3849 20.6037H62.5402L60.4939 7.95163ZM57.0875 3.61197H64.7484L69.4176 31.9012H64.3674L63.3022 25.3178H57.5996L56.5025 31.9012H51.9166L57.0875 3.61197Z" fill="#0C1D0D"/>
</svg>
