<svg width="150" height="29" viewBox="0 0 150 29" fill="none" xmlns="http://www.w3.org/2000/svg">
<path d="M57.3938 8.45464H53.8809V16.9382C53.8809 19.3382 52.9182 20.5536 50.9449 20.5536C50.6233 20.5601 50.3037 20.5011 50.0055 20.3802C49.7074 20.2593 49.437 20.079 49.2107 19.8503C48.7054 19.3451 48.4596 18.4984 48.4596 17.2762V8.45464H44.974V17.5698C44.974 19.5772 45.4314 21.0111 46.3771 21.9567C47.2784 22.8614 48.3811 23.3018 50.2041 23.3018C51.4775 23.3018 53.0377 22.4347 53.9287 21.2944V22.9194H57.3973L57.3938 8.45464ZM111.989 12.3568C111.989 11.2745 111.627 10.3664 110.917 9.65293C109.917 8.64923 108.483 8.06204 106.411 8.07228C104.339 8.08252 100.839 8.50585 100.437 12.4455H103.943C103.895 10.6088 106.23 10.7693 106.23 10.7693C106.974 10.7693 107.657 11.0048 108.152 11.4043C108.456 11.6467 108.661 12.0222 108.685 12.6265C108.722 13.6063 108.255 14.0774 104.967 14.3949C102.434 14.6407 99.4124 15.3303 99.4124 18.9695C99.4124 21.53 101.529 23.2984 104.414 23.2984C106.507 23.2984 107.715 22.7761 108.787 21.5709L108.958 22.916H112.327V22.3732C111.894 22.0318 111.989 20.5946 111.989 20.5946V12.3568ZM102.898 18.8569C102.809 17.7712 103.437 16.9895 105.093 16.7061C105.523 16.6207 105.974 16.5798 106.401 16.5149C107.06 16.4193 107.838 16.235 108.504 15.7843V18C108.504 19.7923 106.725 20.4648 105.424 20.4443C104.117 20.4205 102.994 19.9425 102.898 18.8569ZM85.9308 26.8284L85.9274 8.46488L82.5989 8.45464V10.264C81.7044 9.02818 80.4515 8.07228 78.6012 8.07228C74.4293 8.07228 72.0054 11.0185 72.0054 15.7639C72.0054 18.1809 72.7736 20.3351 74.1084 21.6734C75.1872 22.7487 76.4094 23.2984 78.0822 23.2984C79.9804 23.2984 81.3664 22.4312 82.4213 21.134V26.8386L85.9308 26.8284ZM79.0313 20.4443C78.6122 20.461 78.1945 20.3862 77.8072 20.2253C77.4199 20.0643 77.0723 19.8211 76.7884 19.5123C75.9554 18.6793 75.4979 17.3138 75.4979 15.6751C75.4979 14.1115 75.9997 12.7152 76.8737 11.8378C77.5053 11.2063 78.1198 10.8819 79.0313 10.8819C81.0762 10.8819 82.1516 12.1929 82.4657 14.5724C82.5135 14.9309 82.534 16.2486 82.5101 16.491C82.2814 19.0378 81.1889 20.4443 79.0313 20.4443ZM27.382 22.916H31.1851V14.3334H39.1601V22.916H42.9598V3.62394H39.1601V11.0048H31.1851V3.62394H27.382V22.916ZM65.1776 20.5092C63.6823 20.5468 62.5079 19.8981 62.2894 18.5974H58.7594C58.9267 22.2537 62.5967 23.353 65.1332 23.295C67.6698 23.2404 68.8203 22.6429 69.9537 21.5061C70.7491 20.7106 71.152 19.7035 71.152 18.5155C71.152 15.6922 69.0148 14.7704 66.5773 14.19L65.8126 14.0159C63.9179 13.6472 62.3645 13.2683 62.4533 12.1724C62.542 11.0765 63.7301 10.841 64.6587 10.8137C65.5873 10.7864 66.3656 10.9332 66.9153 12.0461H70.5545C70.1926 9.24326 67.6185 8.0279 64.8806 8.06887C62.1938 8.10983 58.9984 9.17157 58.9984 12.2851C58.9984 15.2176 61.0263 16.1087 63.4638 16.6344C63.7915 16.7095 64.1227 16.7778 64.447 16.8461C66.2666 17.2284 67.639 17.5903 67.6663 18.792C67.6937 20.0005 66.6797 20.4717 65.1776 20.5092ZM100.341 8.45464H96.7086L93.6019 19.5806L90.3894 8.45464H86.6L91.6184 22.916H95.3703L100.341 8.45464ZM117.435 16.0131C117.435 14.4427 117.537 13.2546 118.257 12.326C118.807 11.6228 119.773 10.9263 120.736 10.9536C121.695 10.9809 122.252 11.1755 122.252 11.1755V8.05521C122.252 8.05521 121.326 7.83672 120.312 7.98693C119.172 8.15421 117.82 9.44468 117.233 10.9844V8.45805H113.928V22.9194H117.438L117.435 16.0131ZM135.969 13.0327C135.969 9.9397 134.074 8.07228 130.855 8.07228C129.137 8.07228 127.85 8.9838 126.809 10.6225V8.45464H123.505V22.916H126.99V14.388C126.99 13.3468 127.212 12.3841 127.864 11.732C128.438 11.1551 129.267 10.8307 130.264 10.8512C131.875 10.8819 132.418 11.8071 132.483 13.876V22.916H135.969V13.0327ZM11.7701 25.3399C9.02193 25.3399 8.107 25.3399 6.74484 24.9644C6.27372 24.7971 5.43048 24.565 4.81939 23.5988C3.69279 21.6699 3.69279 18.0512 3.69279 16.3135C3.69279 14.5758 3.69279 11.493 4.81939 9.59148C5.43048 8.60485 6.27372 8.36929 6.74484 8.20542C8.107 7.85379 9.02193 7.85379 11.7701 7.85379C14.4467 7.85379 15.3616 7.85379 16.7476 8.20542C17.2154 8.36929 18.0381 8.60485 18.6014 9.59148C19.8236 11.4964 19.8236 14.7875 19.8236 16.5252C19.8236 18.2151 19.8236 21.6699 18.6014 23.5988C18.0381 24.565 17.2154 24.7971 16.7476 24.961C15.3616 25.3399 14.4432 25.3399 11.7701 25.3399ZM11.7701 17.5562C14.0711 17.5562 14.037 17.5562 14.037 18.3072V23.0458H17.2768V9.92604H14.037V13.8657C14.037 14.6407 14.0711 14.6407 11.7701 14.6407C9.42136 14.6407 9.4316 14.6407 9.4316 13.8657V9.92604H6.23617V23.0458H9.4316V18.3072C9.4316 17.5562 9.42136 17.5562 11.7701 17.5562ZM11.7565 28.6992C14.1019 28.7095 18.3624 28.9177 20.7863 26.2309C21.9675 24.9234 22.268 24.0699 22.8517 22.2093C23.3672 20.5877 23.299 19.625 23.4628 17.8429C23.5106 16.5252 23.5789 14.9513 23.1317 12.6947C22.6401 10.1821 22.2645 8.81652 21.1141 7.66602C22.6401 6.89106 22.8517 4.61056 22.6401 3.06064C22.6401 3.06064 21.4691 2.48027 20.6907 2.19009C19.8441 1.87259 18.4614 1.5312 18.4614 1.5312C18.4614 2.75338 18.6048 4.61056 17.6865 5.22165C16.7476 5.76105 14.4432 5.22165 14.0711 4.04726C13.9516 3.69221 13.8356 2.47344 14.0711 0.944004C13.74 0.875726 12.825 0.664062 11.7223 0.664062C10.5241 0.664062 9.7491 0.875726 9.42136 0.944004C9.58523 2.47344 9.53743 3.69563 9.42136 4.04726C9.02193 5.22165 6.74484 5.76105 5.8265 5.22165C4.81939 4.61056 5.05495 2.75338 5.05495 1.5312C5.05495 1.5312 3.56989 1.89308 2.65837 2.23788C1.91755 2.51441 0.801197 3.06064 0.801197 3.06064C0.565636 4.61056 0.801196 6.89106 2.32722 7.66602C1.18014 8.81652 0.801197 10.1821 0.309591 12.6947C-0.0898381 14.9513 0.00233793 16.5252 0.0262354 17.8429C0.145723 19.625 0.145723 20.5911 0.565636 22.2093C1.17673 24.0699 1.53519 24.9405 2.77445 26.2309C5.28368 28.8528 9.40429 28.7026 11.7565 28.6992ZM149.659 12.3636C149.659 9.74852 147.378 8.06545 143.845 8.07911C141.772 8.08935 138.277 8.51609 137.87 12.4523H141.376C141.329 10.6191 143.667 10.7795 143.667 10.7795C144.415 10.7795 145.33 11.0117 145.825 11.4111C146.129 11.6535 146.33 12.029 146.357 12.6367C146.398 13.6165 145.927 14.0876 142.64 14.4085C140.103 14.6543 137.085 15.3371 137.085 18.9798C137.085 21.547 139.205 23.312 142.087 23.312C144.176 23.312 145.384 22.7863 146.463 21.5846L146.634 22.9297H150V22.38C149.566 22.0387 149.662 20.6014 149.662 20.6014L149.659 12.3636ZM140.571 18.8637C140.479 17.7781 141.107 16.9997 142.766 16.7129C143.196 16.6276 143.643 16.5866 144.073 16.5217C144.729 16.4227 145.507 16.2418 146.176 15.7912V18.0068C146.176 19.7991 144.394 20.4717 143.094 20.4512C141.79 20.4273 140.663 19.9527 140.571 18.8637Z" fill="#0C1D0D"/>
</svg>
