<svg width="150" height="22" viewBox="0 0 150 22" fill="none" xmlns="http://www.w3.org/2000/svg">
<path d="M57.6111 3.49756V9.13954H51.2191V3.50065H47.6944V18.3093H51.2191V12.3525H57.6142V18.3093H61.142V3.49756H57.6111ZM74.0556 3.49756L70.3673 9.36176L66.6852 3.49756H62.5247L68.6111 13.1766V18.3062H72.1327V13.1766L78.2191 3.49756H74.0556ZM89.5525 3.49756V14.3494C89.5525 14.763 89.2438 15.0932 88.8055 15.0932H83.1574V3.50065H79.6327V18.3093H90.0463C90.9722 18.3093 91.7191 18.0315 92.2623 17.4914C92.8025 16.9482 93.0772 16.2044 93.0772 15.2815V3.49756H89.5525ZM106.759 3.49756H96.3426V18.3062H99.8611V6.70127H105.522C105.975 6.70127 106.262 7.05929 106.262 7.44201V18.3062H109.787V6.52534C109.787 5.59942 109.509 4.8525 108.975 4.31238C108.426 3.76917 107.685 3.49756 106.759 3.49756ZM123.469 3.49756H113.052V18.3062H123.469C124.395 18.3062 125.136 18.0284 125.676 17.4883C126.222 16.9451 126.494 16.2013 126.494 15.2784V6.52534C126.494 5.59942 126.222 4.8525 125.676 4.31238C125.136 3.76917 124.392 3.49756 123.469 3.49756ZM122.972 7.46979V14.3278C122.976 14.4279 122.959 14.5277 122.922 14.621C122.886 14.7144 122.831 14.7994 122.761 14.871C122.691 14.9425 122.607 14.9991 122.514 15.0373C122.422 15.0755 122.322 15.0946 122.222 15.0932H116.571V6.70435H122.198C122.66 6.70435 122.969 7.02534 122.969 7.46979M132.636 3.49756C131.71 3.49756 130.963 3.76917 130.423 4.31238C129.88 4.85868 129.611 5.6025 129.611 6.52534V18.3062H133.123V13.726H139.525V18.3062H143.046V3.49756H132.636ZM139.525 6.70435V10.5192H133.123V7.45127C133.123 7.08707 133.407 6.70127 133.877 6.70127L139.525 6.70435ZM146.475 18.3062H150V3.49756H146.475V18.3062ZM20.142 21.2167C31.2685 21.2167 40.2901 16.5963 40.2901 10.9019C40.2901 5.20127 31.2685 0.583984 20.142 0.583984C9.01852 0.583984 0 5.19818 0 10.9019C0 16.5963 9.01852 21.2167 20.142 21.2167ZM23.9383 16.1519C23.5988 16.9327 23.0216 18.5963 21.6944 19.2599C21.2715 19.453 20.8136 19.5581 20.3488 19.5686H20.1451C16.429 19.5686 12.966 19.05 10.071 18.1704L9.95988 18.1272C9.69136 18.0377 9.55556 17.9142 9.55556 17.7599C9.55556 17.6303 9.62654 17.5284 9.72222 17.4327L9.90432 17.2723C10.5772 16.7167 12.5895 15.2568 16.3827 13.8C17.713 13.2939 19.3796 12.6611 21.1235 12.2908C22.1451 12.0778 25.9383 11.4976 23.9352 16.155M34.1142 5.75374C34.1852 5.63028 34.2809 5.52534 34.4537 5.51608C34.5463 5.50682 34.6759 5.52843 34.8704 5.65189C37.2346 7.10559 38.6389 8.92658 38.6389 10.8988C38.6389 14.4513 34.0679 17.5099 27.5278 18.8463C27.108 18.9297 26.8272 18.9266 26.7346 18.8216C26.6667 18.7599 26.6481 18.6426 26.7346 18.5007C26.7833 18.4144 26.8412 18.3337 26.9074 18.2599C30.4691 14.0624 33.1821 7.86793 33.9506 6.08398C34.0123 5.96053 34.0679 5.83707 34.1142 5.75374ZM16.4105 5.62411C16.75 4.84633 17.3272 3.18275 18.6543 2.52226C19.0556 2.32164 19.5556 2.22596 19.9969 2.21361H20.1975C23.9198 2.21361 27.3765 2.72596 30.2778 3.61176C30.2994 3.62102 30.3673 3.64263 30.3889 3.65497C30.6543 3.74448 30.7901 3.86793 30.7901 4.01917C30.7901 4.15189 30.7191 4.25065 30.6265 4.34324C30.5833 4.38645 30.5247 4.43584 30.4414 4.50374C29.7747 5.06547 27.7593 6.52226 23.966 7.97596C22.6296 8.48522 20.966 9.11793 19.2284 9.48522C18.2037 9.70127 14.4074 10.2815 16.4105 5.62411ZM12.7623 2.9451C13.1821 2.86485 13.4599 2.86485 13.5617 2.96979C13.6235 3.03769 13.6389 3.1488 13.5586 3.28769C13.5082 3.3736 13.4492 3.45425 13.3827 3.52843C9.82099 7.72905 7.10802 13.9204 6.33333 15.7105C6.27778 15.834 6.21914 15.9574 6.16975 16.0377C6.10185 16.1611 6.00617 16.2692 5.83642 16.2784C5.74383 16.2877 5.61111 16.2599 5.41358 16.1395C3.04938 14.6889 1.65123 12.8679 1.65123 10.8957C1.65123 7.34016 6.21914 4.28152 12.7623 2.94818" fill="#0C1D0D"/>
</svg>
