<svg width="150" height="35" viewBox="0 0 150 35" fill="none" xmlns="http://www.w3.org/2000/svg">
<path fill-rule="evenodd" clip-rule="evenodd" d="M22.1004 3.05363C20.3601 2.35718 18.6198 2.18306 16.8796 2.18306C8.35315 2.18306 1.39205 9.14417 1.39205 17.6697C1.39205 26.1961 8.35315 33.1572 16.8796 33.1572C23.1442 33.1572 28.5392 29.5034 30.975 24.2826H32.5412C29.9304 30.3731 23.8398 34.5493 16.8796 34.5493C7.6567 34.5493 0 26.8934 0 17.6706C0 8.2736 7.6567 0.791016 16.8796 0.791016C18.9672 0.791016 20.8816 1.14009 22.6219 1.66158L22.1004 3.05363ZM13.9214 23.0664H32.8886C33.585 21.3261 33.7591 19.5858 33.7591 17.6706C33.7591 10.7103 29.583 4.7939 23.6657 2.18306L13.9214 23.0664ZM150 1.14009H29.583L30.9742 2.53215H149.652L150 1.14009ZM140.951 34.7251H29.2339L30.8001 33.3314H141.3L140.951 34.7251ZM21.5782 4.09748C20.012 3.57599 18.4459 3.40188 16.8797 3.40188C9.22299 3.40188 2.78423 9.49242 2.61012 17.3232H15.4876L21.5782 4.09748ZM16.8797 31.9393C22.4487 31.9393 27.1472 28.807 29.5831 24.2826L12.1812 24.2835L14.9653 18.1938H2.61012C2.95834 25.8496 9.22299 31.9393 16.8797 31.9393ZM32.193 31.766H141.647L142.517 28.9819H34.9771L32.193 31.766ZM32.5404 4.09823H149.305L148.435 6.88148H35.3245L32.5404 4.09823ZM90.1384 19.4108C90.1384 18.8884 90.8357 18.3669 91.5305 18.3669H94.6628L94.1413 20.9778C93.968 21.6734 93.2707 22.1966 92.576 22.1966H89.4437L90.1384 19.4108ZM96.9254 28.1121H93.968L98.3175 11.7541C98.4907 11.4067 98.4907 10.5361 97.9692 10.5361H95.3584L96.229 8.10024H103.712C104.235 8.10024 104.756 8.79669 104.756 9.14407L106.148 17.149L112.065 9.31817C112.588 8.62172 113.457 8.10024 114.153 8.10024H119.374L113.805 28.1121H106.846L109.978 17.149L102.146 28.1121H100.406L99.7112 17.3231L96.9254 28.1121ZM126.682 17.4972L124.593 24.6316C124.42 25.328 124.072 25.6745 123.028 25.6763C122.331 25.6763 121.984 25.1539 122.157 24.6324L124.071 17.324C124.246 16.6275 124.592 16.4534 125.638 16.4534C126.333 16.4534 126.682 16.9757 126.682 17.4972ZM124.593 26.7201C123.376 28.2854 121.288 28.2854 119.547 28.2854C117.459 28.1121 115.893 27.4148 116.763 24.2825L119.199 16.1043C119.721 14.5382 121.288 13.4943 122.68 13.4943C124.247 13.4943 126.509 13.8417 127.204 15.582L127.725 13.6676H133.295L130.335 24.2825C129.987 25.6746 130.51 25.8495 131.902 25.1531L132.597 26.0236L132.559 26.0549C130.67 27.6022 129.623 28.4592 127.03 28.2854C125.639 28.2854 124.768 27.4148 124.593 26.7201ZM139.732 28.1121H135.73C133.817 28.1121 132.425 27.0683 133.294 24.1101L135.73 16.1052C136.078 14.539 137.645 13.4952 139.037 13.4952H143.386C144.953 13.4952 145.996 15.4096 145.475 16.8016L144.953 19.0642H142.342L143.039 17.149C143.039 16.6267 142.69 16.1052 141.993 16.1052C140.95 16.1052 140.601 16.4534 140.428 17.149L138.34 24.4583C138.166 24.9807 138.689 25.5021 139.383 25.5021C140.429 25.5021 140.775 25.1531 140.95 24.4583L141.124 23.5878H143.734L143.213 25.5013C142.865 26.8933 141.994 28.1121 139.732 28.1121ZM83.1782 28.1121H79.1761C77.0876 28.1121 75.6956 27.0683 76.5653 24.1092L79.002 16.1043C79.5235 14.5382 80.9156 13.4943 82.4809 13.4943H86.6587C88.399 13.4943 89.267 15.4087 88.9205 16.8008L86.4838 25.5013C86.1355 26.8933 85.265 28.1121 83.1782 28.1121ZM48.3761 27.9372H40.197C37.2388 27.9372 35.6727 26.5451 36.8906 22.5448L40.197 11.4084C40.7194 9.31989 42.6338 7.92783 44.7214 7.92783H56.3801L55.3363 10.3637H49.9422C48.8976 10.3637 48.0278 11.4075 47.8537 11.929L44.5473 23.5886C44.1991 24.8057 44.7206 25.1539 45.5911 25.1539H47.8537C48.7234 25.1539 49.0717 24.8048 49.2458 24.1101L52.5522 12.4505C52.7263 11.5799 51.8558 10.8843 51.3343 10.8843H54.2925C55.6845 10.8843 56.5543 11.754 56.0328 13.6684L53.0746 24.2834C52.5522 26.3719 51.3343 27.9372 48.3761 27.9372ZM63.8627 26.1969C62.6448 27.2416 60.5563 28.1121 58.4686 28.1121C56.3801 28.1121 54.2925 26.8933 55.1622 23.9343L59.5125 7.92613H65.0807L60.9045 23.5878C60.3035 25.8393 62.4241 25.1112 63.1285 24.8694C63.2404 24.831 63.3165 24.8048 63.3404 24.8048L63.8627 26.1969ZM71.6935 17.149L70.9979 19.5857H73.6079L74.3035 17.149C74.4776 16.6267 73.9553 16.1052 73.2597 16.1052C72.215 16.1052 71.8677 16.4534 71.6935 17.149ZM74.7394 25.8203C73.5208 26.8413 72.0041 28.1121 67.6915 28.1121C65.603 28.1121 63.6886 27.0683 64.5592 24.1092L66.9951 16.1043C67.3433 14.5382 68.9094 13.4943 70.3015 13.4943H74.6518C76.2179 13.4943 77.2626 15.4087 76.9144 16.8008L75.5223 21.8475H70.3015V22.0207L69.7792 24.2825C69.6059 24.8048 70.3015 25.328 70.9979 25.328C71.8624 25.328 72.8977 24.8113 74.275 24.1239L74.3044 24.1092L75.3482 25.328C75.1457 25.4799 74.9469 25.6465 74.7394 25.8203ZM86.3113 17.149L84.2228 24.4583C84.0487 25.1531 83.7005 25.5013 82.6575 25.5021C81.9602 25.5021 81.4388 24.9798 81.612 24.4583L83.8738 17.149C84.0487 16.4534 84.397 16.1052 85.2658 16.1052C85.9631 16.1052 86.4846 16.6267 86.3113 17.149Z" fill="#0C1D0D"/>
</svg>
